<?xml version="1.0" standalone="no"?>
<!DOCTYPE svg PUBLIC "-//W3C//DTD SVG 20010904//EN"
 "http://www.w3.org/TR/2001/REC-SVG-20010904/DTD/svg10.dtd">
<svg version="1.0" xmlns="http://www.w3.org/2000/svg"
 width="360.000000pt" height="360.000000pt" viewBox="0 0 360.000000 360.000000"
 preserveAspectRatio="xMidYMid meet">

<g transform="translate(0.000000,360.000000) scale(0.100000,-0.100000)"
fill="#000000" stroke="none">
<path d="M0 1800 l0 -1800 1800 0 1800 0 0 1800 0 1800 -1800 0 -1800 0 0
-1800z m2230 825 l0 -85 -165 0 -165 0 0 -35 0 -35 111 0 c198 0 218 -25 219
-267 l0 -153 -90 0 -90 0 0 130 0 130 -75 0 -75 0 0 -181 c0 -208 11 -196
-110 -118 l-80 51 0 239 0 239 -170 0 -170 0 0 85 0 85 430 0 430 0 0 -85z
m-600 -235 l0 -80 -40 0 -40 0 0 -117 1 -118 317 -201 c174 -110 325 -213 337
-228 18 -25 20 -44 23 -219 2 -168 0 -196 -15 -227 -26 -51 -72 -70 -165 -70
l-78 0 0 80 0 80 40 0 40 0 0 134 0 134 -72 45 -73 46 -3 -380 -2 -379 -95 0
-94 0 -3 118 -3 117 -125 5 c-201 8 -210 20 -210 285 l0 175 90 0 90 0 0 -150
0 -150 80 0 80 0 0 243 0 242 -149 97 c-82 53 -158 109 -168 124 -15 24 -19
53 -21 190 -3 144 -1 167 16 206 26 60 64 77 165 78 l77 0 0 -80z"/>
</g>
</svg>
